<?xml version="1.0" encoding="UTF-8" standalone="no"?>
<!-- Created with Inkscape (http://www.inkscape.org/) -->

<svg
   version="1.1"
   id="svg2"
   width="793.70667"
   height="793.70667"
   viewBox="0 0 793.70667 793.70667"
   sodipodi:docname="menu.eps"
   xmlns:inkscape="http://www.inkscape.org/namespaces/inkscape"
   xmlns:sodipodi="http://sodipodi.sourceforge.net/DTD/sodipodi-0.dtd"
   xmlns="http://www.w3.org/2000/svg"
   xmlns:svg="http://www.w3.org/2000/svg">
  <defs
     id="defs6" />
  <sodipodi:namedview
     id="namedview4"
     pagecolor="#ffffff"
     bordercolor="#000000"
     borderopacity="0.25"
     inkscape:showpageshadow="2"
     inkscape:pageopacity="0.0"
     inkscape:pagecheckerboard="0"
     inkscape:deskcolor="#d1d1d1" />
  <g
     id="g8"
     inkscape:groupmode="layer"
     inkscape:label="ink_ext_XXXXXX"
     transform="matrix(1.3333333,0,0,-1.3333333,0,793.70667)">
    <g
       id="g10"
       transform="scale(0.1)">
      <path
         d="m 2096.65,4019.44 98.22,-592.99 h 124.62 l 91.01,601.38 v -601.38 h 124.62 v 838.62 h -183.29 l -89.84,-595.43 -97.06,595.43 h -183.29 v -838.62 h 115.01 v 592.99"
         style="fill:#000000;fill-opacity:1;fill-rule:nonzero;stroke:none"
         id="path12" />
      <path
         d="m 2631.3,3426.45 h 359.36 v 119.79 h -227.62 v 245.62 h 180.9 v 119.79 h -180.9 v 233.62 h 227.62 v 119.8 H 2631.3 v -838.62"
         style="fill:#000000;fill-opacity:1;fill-rule:nonzero;stroke:none"
         id="path14" />
      <path
         d="m 3189.81,4033.87 164.13,-607.42 h 135.34 v 838.62 h -117.4 v -501.99 l -135.35,501.99 h -165.34 v -838.62 h 118.62 v 607.42"
         style="fill:#000000;fill-opacity:1;fill-rule:nonzero;stroke:none"
         id="path16" />
      <path
         d="m 3846.6,3618.13 c 0,-59.89 -26.39,-81.45 -68.29,-81.45 -41.94,0 -68.28,21.56 -68.28,81.45 v 646.94 h -131.79 v -638.55 c 0,-134.23 67.06,-210.9 196.47,-210.9 129.39,0 196.45,76.67 196.45,210.9 v 638.55 H 3846.6 v -646.94"
         style="fill:#000000;fill-opacity:1;fill-rule:nonzero;stroke:none"
         id="path18" />
      <path
         d="m 2784.71,3176.49 h -736.66 c -23.49,0 -42.5,-19.01 -42.5,-42.5 0,-23.49 19.01,-42.5 42.5,-42.5 h 736.66 c 23.49,0 42.5,19.01 42.5,42.5 0,23.49 -19.01,42.5 -42.5,42.5"
         style="fill:#000000;fill-opacity:1;fill-rule:nonzero;stroke:none"
         id="path20" />
      <path
         d="m 2784.71,2836.49 h -736.66 c -23.49,0 -42.5,-19.01 -42.5,-42.5 0,-23.49 19.01,-42.5 42.5,-42.5 h 736.66 c 23.49,0 42.5,19.01 42.5,42.5 0,23.49 -19.01,42.5 -42.5,42.5"
         style="fill:#000000;fill-opacity:1;fill-rule:nonzero;stroke:none"
         id="path22" />
      <path
         d="m 2784.71,2496.49 h -736.66 c -23.49,0 -42.5,-19.01 -42.5,-42.5 0,-23.49 19.01,-42.5 42.5,-42.5 h 736.66 c 23.49,0 42.5,19.01 42.5,42.5 0,23.49 -19.01,42.5 -42.5,42.5"
         style="fill:#000000;fill-opacity:1;fill-rule:nonzero;stroke:none"
         id="path24" />
      <path
         d="m 2784.71,2156.49 h -736.66 c -23.49,0 -42.5,-19.01 -42.5,-42.5 0,-23.49 19.01,-42.5 42.5,-42.5 h 736.66 c 23.49,0 42.5,19.01 42.5,42.5 0,23.49 -19.01,42.5 -42.5,42.5"
         style="fill:#000000;fill-opacity:1;fill-rule:nonzero;stroke:none"
         id="path26" />
      <path
         d="m 2784.71,1816.49 h -736.66 c -23.49,0 -42.5,-19.01 -42.5,-42.5 0,-23.49 19.01,-42.5 42.5,-42.5 h 736.66 c 23.49,0 42.5,19.01 42.5,42.5 0,23.49 -19.01,42.5 -42.5,42.5"
         style="fill:#000000;fill-opacity:1;fill-rule:nonzero;stroke:none"
         id="path28" />
      <path
         d="m 2784.71,1476.49 h -736.66 c -23.49,0 -42.5,-19.01 -42.5,-42.5 0,-23.49 19.01,-42.5 42.5,-42.5 h 736.66 c 23.49,0 42.5,19.01 42.5,42.5 0,23.49 -19.01,42.5 -42.5,42.5"
         style="fill:#000000;fill-opacity:1;fill-rule:nonzero;stroke:none"
         id="path30" />
      <path
         d="m 2784.71,1136.49 h -736.66 c -23.49,0 -42.5,-19.01 -42.5,-42.5 0,-23.49 19.01,-42.5 42.5,-42.5 h 736.66 c 23.49,0 42.5,19.01 42.5,42.5 0,23.49 -19.01,42.5 -42.5,42.5"
         style="fill:#000000;fill-opacity:1;fill-rule:nonzero;stroke:none"
         id="path32" />
      <path
         d="m 3925.11,3176.49 h -736.65 c -23.5,0 -42.5,-19.01 -42.5,-42.5 0,-23.49 19,-42.5 42.5,-42.5 h 736.65 c 23.49,0 42.5,19.01 42.5,42.5 0,23.49 -19.01,42.5 -42.5,42.5"
         style="fill:#000000;fill-opacity:1;fill-rule:nonzero;stroke:none"
         id="path34" />
      <path
         d="m 3925.11,2836.49 h -736.65 c -23.5,0 -42.5,-19.01 -42.5,-42.5 0,-23.49 19,-42.5 42.5,-42.5 h 736.65 c 23.49,0 42.5,19.01 42.5,42.5 0,23.49 -19.01,42.5 -42.5,42.5"
         style="fill:#000000;fill-opacity:1;fill-rule:nonzero;stroke:none"
         id="path36" />
      <path
         d="m 3925.11,2496.49 h -736.65 c -23.5,0 -42.5,-19.01 -42.5,-42.5 0,-23.49 19,-42.5 42.5,-42.5 h 736.65 c 23.49,0 42.5,19.01 42.5,42.5 0,23.49 -19.01,42.5 -42.5,42.5"
         style="fill:#000000;fill-opacity:1;fill-rule:nonzero;stroke:none"
         id="path38" />
      <path
         d="m 3925.11,2156.49 h -736.65 c -23.5,0 -42.5,-19.01 -42.5,-42.5 0,-23.49 19,-42.5 42.5,-42.5 h 736.65 c 23.49,0 42.5,19.01 42.5,42.5 0,23.49 -19.01,42.5 -42.5,42.5"
         style="fill:#000000;fill-opacity:1;fill-rule:nonzero;stroke:none"
         id="path40" />
      <path
         d="m 3925.11,1816.49 h -736.65 c -23.5,0 -42.5,-19.01 -42.5,-42.5 0,-23.49 19,-42.5 42.5,-42.5 h 736.65 c 23.49,0 42.5,19.01 42.5,42.5 0,23.49 -19.01,42.5 -42.5,42.5"
         style="fill:#000000;fill-opacity:1;fill-rule:nonzero;stroke:none"
         id="path42" />
      <path
         d="m 3925.11,1476.49 h -736.65 c -23.5,0 -42.5,-19.01 -42.5,-42.5 0,-23.49 19,-42.5 42.5,-42.5 h 736.65 c 23.49,0 42.5,19.01 42.5,42.5 0,23.49 -19.01,42.5 -42.5,42.5"
         style="fill:#000000;fill-opacity:1;fill-rule:nonzero;stroke:none"
         id="path44" />
      <path
         d="m 3925.11,1136.49 h -736.65 c -23.5,0 -42.5,-19.01 -42.5,-42.5 0,-23.49 19,-42.5 42.5,-42.5 h 736.65 c 23.49,0 42.5,19.01 42.5,42.5 0,23.49 -19.01,42.5 -42.5,42.5"
         style="fill:#000000;fill-opacity:1;fill-rule:nonzero;stroke:none"
         id="path46" />
      <path
         d="M 3732.2,4692.29 H 2035.68 L 3732.2,5198.4 Z m -1945.16,-85 H 3774.7 4165.75 V 739.879 H 1787.04 Z m 2421.23,170 h -306.06 v 478.13 c 0,40.27 -19.03,78.17 -51.31,102.24 -22.28,16.59 -49.06,25.26 -76.2,25.26 -12.2,0 -24.48,-1.75 -36.44,-5.33 L 1708.09,4771.97 c -54.03,-16.11 -91.05,-65.8 -91.05,-122.18 V 697.379 c 0,-70.418 57.09,-127.5 127.5,-127.5 h 2463.73 c 70.41,0 127.5,57.082 127.5,127.5 V 4649.79 c 0,70.42 -57.09,127.5 -127.5,127.5"
         style="fill:#000000;fill-opacity:1;fill-rule:nonzero;stroke:none"
         id="path48" />
    </g>
  </g>
</svg>
